# xmcd
#
# Track frame offsets: 
#        150
#        19362
#        38304
#        52184
#        68028
#        87592
#        104097
#        118498
#        129979
#        147985
#        166067
#
# Disc length: 2390 seconds
#
# Revision: 0
# Processed by: cddbd v1.5.1PL2 Copyright (c) Steve Scherf et al.
# Submitted via: ExactAudioCopy v0.95a5
#
DISCID=9e09540b
DTITLE=Jean-François Dubé - Jean-François Dubé
DYEAR=2006
DGENRE=Rock
TTITLE0=À vélo
TTITLE1=Quand je suis près de toi
TTITLE2=Trois messages
TTITLE3=Une semaine
TTITLE4=Laisse aller
TTITLE5=J'meurs un peu
TTITLE6=Taxi
TTITLE7=La réponse est dans le vent
TTITLE8=La couleur de ses yeux
TTITLE9=M'évader avec toi
TTITLE10=La journée de congé
EXTD=
EXTT0=
EXTT1=
EXTT2=
EXTT3=
EXTT4=
EXTT5=
EXTT6=
EXTT7=
EXTT8=
EXTT9=
EXTT10=
PLAYORDER=
